<?xml version="1.0" encoding="UTF-8" standalone="no"?>
<!-- Created by Jens Leon Wagner (http://www.fosforito.net/)-->
<svg id="svg2" xmlns:rdf="http://www.w3.org/1999/02/22-rdf-syntax-ns#" xmlns="http://www.w3.org/2000/svg" height="2500" width="2e3" version="1.1" xmlns:cc="http://creativecommons.org/ns#" xmlns:xlink="http://www.w3.org/1999/xlink" xmlns:dc="http://purl.org/dc/elements/1.1/">
 <defs id="defs4">
  <radialGradient id="radialGradient3985" gradientUnits="userSpaceOnUse" cy="533.33" cx="571.67" gradientTransform="matrix(1 0 0 .42105 0 308.77)" r="855">
   <stop id="stop3987" stop-color="#ff0" stop-opacity=".49804" offset="0"/>
   <stop id="stop3983" stop-color="#ff0" stop-opacity="0" offset="1"/>
  </radialGradient>
 </defs>
 <g id="layer1" transform="translate(0 1447.6)">
  <path id="path3977" d="m1426.7 533.33a855 360 0 1 1 -1710 0 855 360 0 1 1 1710 0z" transform="matrix(1.0906 0 0 1.2646 370.68 -1461.6)" fill="url(#radialGradient3985)"/>
  <path id="path3873" fill="#a18640" d="m1239.4-262.71-525.07 150.84 3.2909 407.14c-8.3071 4.8678-18.77 19.462-26.842 26.261-48.713 41.035-66.708 101.35-45.593 134.67 14.092 22.235 44.009 26.764 76.822 15.17l3.8736 291.62s95.345 69.577 256.76 72.776c183.61 3.6379 256.76-72.776 256.76-72.776v-115.49c26.586 5.6176 48.344-0.91008 57.317-20.388 14.849-32.233-12.832-99.187-59.511-139.1z"/>
  <path id="rect2985" fill="#ffdd84" d="m1091.7-377.04c-39.655 0.13365-85.267 4.5114-133.18 17.243-131.41 34.918-234.2 101.5-234.2 101.5l7.3017 559.49c-7.9543 4.7333-15.891 10.392-23.619 17.003-46.644 39.901-68.073 98.521-47.855 130.92 13.494 21.621 42.146 26.048 73.566 14.775l3.7023 283.57c0-0.00011 91.299 67.645 245.86 70.755 175.82 3.5374 245.86-70.755 245.86-70.755v-112.3c25.457 5.4625 46.291-0.87385 54.883-19.814 14.218-31.343-10.187-85.794-54.883-124.61v-850.53s-56.231-17.517-137.43-17.243z"/>
  <path id="path3796" fill="#a3873d" d="m732.24-203.3s111.88-101.43 276.26-113.5c125.19-9.1897 230.29 21.939 230.29 21.939s53.528 115.1-0.4538 144.8c-27.084 14.904-57.13-68.529-87.95-62.893-68.56 12.538-108.93 182.28-178.36 189.41-62.34 6.398-61.81-156.43-124.13-149.92-60.29 6.3-55.94 209.75-112.89 190.14-70.85-24.384-2.77-219.98-2.77-219.98z"/>
  <path id="path3756-6" fill="#eee" d="m724.46-258.59s136.3 30.313 291.32 9.4705c124.3-16.712 213.34-111.23 213.34-111.23s58.939 147.35 4.9562 177.05c-27.084 14.904-54.938-42.202-85.758-36.566-68.561 12.538-102.08 153.76-171.52 160.89-62.34 6.4-66.32-123.52-128.64-117.01-60.29 6.3-56.09 176.84-113.04 157.23-70.85-24.383-10.66-239.83-10.66-239.83z"/>
  <path id="path3756-3" fill="#ffdd84" d="m730.74-247.57s132.82 21.549 283.01 1.9604c120.43-15.706 205.39-92.76 205.39-92.76s59.548 116.32 7.6008 141.04c-26.063 12.4-54.006-32.587-83.842-27.502-66.372 11.31-96.691 124.53-164 131.54-60.423 6.2956-66.335-97.193-126.74-90.805-58.444 6.1805-51.676 142.04-107.28 127.5-69.18-18.09-14.14-190.98-14.14-190.98z"/>
  <path id="path3933-9" fill="#eee" d="m710.66 409.33c-10.572 32.604-29.709 49.768-39.593 40.893-9.8834-8.875-11.912-45.994 3.8015-73.033 24.598-42.326 53.949-67.458 53.949-67.458s-1.9813 49.709-18.158 99.597z"/>
  <path id="path3933" fill="#eee" d="m1264.6 548.52c14.311 24.101 19.669 53.655 13.727 62.955-5.9422 9.2994-24.491-0.659-35.246-29.278-16.835-44.801-24.467-89.728-24.467-89.728s24.087 19.175 45.985 56.052z"/>
  <path id="path3803" d="m388 985a40 63 0 1 1 -80 0 40 63 0 1 1 80 0z" transform="matrix(1.7507 -.33573 .33450 1.7443 55.784 -1356.2)" fill="#a3873d"/>
  <path id="path3879" d="m388 985a40 63 0 1 1 -80 0 40 63 0 1 1 80 0z" transform="matrix(1.7667 -.23725 .23638 1.7602 140.26 -1432.5)" fill="#ffdd82"/>
  <path id="path3933-5" fill="#eee" d="m944.51 288.65c19.282 27.415 52.951 39.473 66.023 32.425 13.071-7.0475 11.993-40.031-18.687-57.946-22.467-13.12-62.609-28.271-62.609-28.271s3.2598 36.711 15.274 53.792z"/>
  <g id="g3972" transform="matrix(1.7189 0 0 1.6695 635.53 244.22)">
   <path id="path3966" fill="#ff653b" d="m309.02-892.05s-75.826 28.107-144.08 113.3c-80.337 100.28-88.58 171.07-88.58 171.07-94.537 286.05 363.37 301.05 234.5 46.305 0 0-28.543-41.771-30.625-159.65-1.793-101.5 28.785-171.03 28.785-171.03z"/>
   <path id="path3968" fill="#ffcc24" d="m258.86-796.08s-57.885 26.392-106.69 97.373c-57.445 83.55-60.009 139.82-60.009 139.82-58.346 230.81 301.39 217.09 186.35 23.424 0 0-34.393-32.168-42.516-124.99-6.9948-79.93 22.864-135.63 22.864-135.63z"/>
   <path id="path3970" fill="#eee" d="m206.2-660.51s-37.09 23.828-62.14 74.726c-29.486 59.911-24.094 95.806-24.094 95.806-11.317 153.12 238.37 100.06 133.24-8.1834 0 0-31.654-13.733-49.181-71.417-15.093-49.671 2.1753-90.931 2.1753-90.931z"/>
  </g>
  <path id="path3851" d="m979.04-277.78c-0.33346 0.28865-1.5256-0.40076-3.3836-2.0745-1.8579-1.6738-4.3763-4.3414-7.1829-8.0761-2.8066-3.7348-5.8962-8.5456-8.7987-14.432-2.9025-5.886-5.6127-12.853-7.6429-20.714-2.0673-8.014-3.4886-16.902-4.0576-26.377-0.56895-9.4755-0.28507-19.536 0.8295-29.797 0.23129-2.1457 0.49675-4.302 0.79617-6.4665 2.678-19.36 7.7559-37.108 13.243-52.168 6.232-17.12 13.013-30.862 18.296-40.196 2.6416-4.6671 4.9136-8.238 6.6161-10.591s2.834-3.4896 3.2578-3.2661c0.42387 0.22351 0.1129 1.7919-0.80002 4.529-0.91293 2.7371-2.4262 6.6444-4.3504 11.575-3.8485 9.8614-9.3539 23.825-14.642 40.781-4.6485 14.922-9.1599 32.157-11.719 50.704-0.28609 2.0737-0.54397 4.1369-0.77333 6.1879-1.088 9.805-1.5283 19.33-1.2627 28.278 0.26559 8.9484 1.238 17.32 2.7636 24.921 1.4852 7.4159 3.5236 14.092 5.7167 19.858 2.1932 5.7659 4.5378 10.628 6.6206 14.566 2.0828 3.9382 3.8989 6.9618 5.0815 9.0926 1.1825 2.1308 1.725 3.3779 1.3915 3.6665z" fill-rule="evenodd" stroke="#372301" stroke-width="5.4848" fill="#2c2100"/>
 </g>
</svg>
