<?xml version="1.0" encoding="UTF-8"?>
<!DOCTYPE svg PUBLIC "-//W3C//DTD SVG 1.1//EN" "http://www.w3.org/Graphics/SVG/1.1/DTD/svg11.dtd">
<svg version="1.1" xmlns="http://www.w3.org/2000/svg" xmlns:xlink="http://www.w3.org/1999/xlink" x="0" y="0" width="433" height="526" viewBox="0, 0, 433, 526">
  <g id="Layer_1">
    <path d="M139.819,288.9 C139.819,288.9 149.044,312.876 170.56,312.257 C192.075,311.646 216.67,281.517 216.67,281.517 L139.819,288.9" fill="#F8D4B6"/>
    <path d="M45.15,335.623 C45.15,335.623 1.5,404.472 3.954,421.692 C6.415,438.897 35.314,471.494 35.314,471.494 L60.521,435.22 L64.205,364.521 L75.884,342.379 L45.15,335.623" fill="#F8D4B6"/>
    <path d="M314.419,333.162 L264.617,350.993 L270.769,459.189 C270.769,459.189 329.782,446.28 332.243,419.842 C334.704,393.405 314.419,333.162 314.419,333.162" fill="#F8D4B6"/>
    <path d="M75.272,275.378 L23.628,324.555 L75.272,344.84 L64.205,364.521 L255.398,405.703 L267.696,410.013 L268.927,349.755 L335.316,325.786 L258.471,269.226 L214.209,282.142 C214.209,282.142 193.306,312.876 170.56,312.257 C147.813,311.646 142.287,287.05 142.287,287.05 L75.272,275.378" fill="#93C781"/>
    <g>
      <path d="M258.471,270.259 C258.471,270.259 315.031,301.387 333.888,326.812 L267.492,350.584 L267.078,410.013 M74.653,279.681 C74.653,279.681 37.985,305.507 19.128,327.642 L75.884,344.84 L64.824,370.047" fill-opacity="0" stroke="#563E26" stroke-width="9" stroke-linecap="round" stroke-linejoin="round"/>
      <path d="M90.347,472.998 C97.463,494.079 90.973,515.285 75.849,520.382 C60.732,525.501 42.71,512.556 35.595,491.484 C28.479,470.412 34.976,449.205 50.1,444.093 C65.217,438.989 83.246,451.933 90.347,472.998" fill="#F8D4B6"/>
      <path d="M90.347,472.998 C97.463,494.079 90.973,515.285 75.849,520.382 C60.732,525.501 42.71,512.556 35.595,491.484 C28.479,470.412 34.976,449.205 50.1,444.093 C65.217,438.989 83.246,451.933 90.347,472.998 z" fill-opacity="0" stroke="#563E26" stroke-width="9" stroke-linecap="round" stroke-linejoin="round"/>
    </g>
    <path d="M57.441,438.286 C57.441,438.286 51.296,370.652 53.138,370.652 C54.98,370.652 107.243,369.428 107.243,369.428 L120.764,336.853 L193.306,337.464 L208.676,379.265 L258.471,386.022 L230.199,499.148 L139.207,497.306 L57.441,438.286" fill="#7E7F7F"/>
    <path d="M187.779,374.962 L177.324,354.058 L132.443,354.677 L124.456,373.126 L187.779,374.962" fill="#ECB54C"/>
    <path d="M54.368,395.866 L57.441,431.529 L93.096,413.079 L93.715,395.254 L54.368,395.866" fill="#5D5E5E"/>
    <path d="M251.095,406.926 L203.761,406.926 L192.694,473.941 L234.495,480.086 L251.095,406.926" fill="#5D5E5E"/>
    <path d="M150.274,465.644 C150.274,492.292 128.668,513.9 102.012,513.9 C75.363,513.9 53.756,492.292 53.756,465.644 C53.756,438.989 75.363,417.381 102.012,417.381 C128.668,417.381 150.274,438.989 150.274,465.644" fill="#85CDD9"/>
    <g>
      <path d="M152.735,464.533 C152.735,492.595 129.982,515.348 101.914,515.348 C73.845,515.348 51.091,492.595 51.091,464.533 C51.091,436.457 73.845,413.705 101.914,413.705 C129.982,413.705 152.735,436.457 152.735,464.533 z M93.715,413.705 L143.721,393.215 C143.721,393.215 176.501,388.3 184.699,430.923 L147.813,485.015 M57.652,434.207 L52.73,371.087 L260.109,382.563 L228.968,498.142 L143.721,496.498 M107.651,371.904 L120.764,335.84 L192.898,338.301 L205.188,376.009 M126.509,370.265 L133.062,354.691 L178.146,356.33 L184.699,375.187 M253.549,405.513 L202.734,406.329 L192.898,475.178 L228.968,479.285 M55.191,392.4 L93.715,395.676 L93.715,409.619" fill-opacity="0" stroke="#563E26" stroke-width="9" stroke-linecap="round" stroke-linejoin="round"/>
      <path d="M274.474,453.642 C268.104,474.947 250.547,488.509 235.261,483.925 C219.968,479.355 212.74,458.388 219.11,437.083 C225.474,415.779 243.038,402.215 258.324,406.779 C273.617,411.349 280.845,432.337 274.474,453.642" fill="#F8D4B6"/>
      <path d="M274.474,453.642 C268.104,474.947 250.547,488.509 235.261,483.925 C219.968,479.355 212.74,458.388 219.11,437.083 C225.474,415.779 243.038,402.215 258.324,406.779 C273.617,411.349 280.845,432.337 274.474,453.642 z M315.031,336.853 C315.031,336.853 340.238,405.091 329.171,425.988 C318.103,446.892 276.914,456.117 276.914,456.117 M43.92,336.234 C43.92,336.234 -1.573,403.861 5.185,429.672 C11.949,455.505 28.549,469.033 28.549,469.033 M141.253,290.742 C141.253,290.742 148.643,309.592 169.132,311.238 C189.614,312.883 215.848,285.011 215.848,285.011" fill-opacity="0" stroke="#563E26" stroke-width="9" stroke-linecap="round" stroke-linejoin="round"/>
    </g>
    <path d="M90.172,112.788 C90.172,112.788 49.25,133.966 40.693,152.648 C32.135,171.33 32.135,171.33 32.135,171.33 C32.135,171.33 17.341,157.317 19.676,140.196 C22.01,123.068 41.135,101.882 41.135,101.882 C41.135,101.882 43.533,70.171 46.992,71.887 C50.452,73.595 83.914,81.373 83.914,81.373 C83.914,81.373 77.782,59.266 81.249,59.414 C84.708,59.589 115.505,68.772 115.505,68.772 L119.724,50.238 L126.319,39.761 C126.319,39.761 170.693,31.978 225.966,30.431 C281.232,28.876 319.369,46.779 334.929,75.572 C350.503,104.378 355.953,134.747 355.953,161.205 C355.953,187.67 342.48,212.378 342.48,212.378 C342.48,212.378 341.946,172.884 327.933,168.996 C313.919,165.1 301.01,177.173 301.01,177.173 C301.01,177.173 285.893,140.969 246.982,118.399 C208.057,95.829 170.349,97.2 170.349,97.2 L155.112,71.697 L142.315,92.552 L122.859,75.423 L114.302,100.336 L89.391,81.639 L90.172,112.788" fill="#565856"/>
    <path d="M324.171,171.836 C314.785,170.986 306.017,174.572 301.01,177.173 C295.357,165.431 282.131,141.848 260.644,126.028 C231.063,104.231 170.349,97.2 170.349,97.2 L150.113,71.514 L142.315,92.552 L122.859,75.423 L117.41,103.451 L92.505,80.866 L90.172,112.788 C90.172,112.788 73.831,122.119 61.364,129.142 C56.422,131.899 51.415,136.371 47.112,140.787 C46.599,140.66 46.092,140.561 45.593,140.449 C45.593,140.449 44.264,142.544 42.169,146.116 C38.288,150.567 35.679,154.04 35.679,154.04 L37.711,154.131 C27.017,174.072 10.198,211.141 19.437,233.318 C32.508,264.691 73.05,280.392 93.982,281.706 C114.9,283.007 161.988,286.931 161.988,286.931 L231.31,276.461 L296.7,245.074 C296.7,245.074 337.263,226.764 342.48,212.378 C347.719,197.986 338.564,173.158 324.171,171.836" fill="#F8D4B6"/>
    <path d="M295.456,226.364 C295.456,250.509 275.895,270.056 251.756,270.056 C227.618,270.056 208.05,250.509 208.05,226.364 C208.05,202.24 227.618,182.665 251.756,182.665 C275.895,182.665 295.456,202.24 295.456,226.364" fill="#EB98AF"/>
    <path d="M48.033,182.665 C38.646,182.665 29.97,185.646 22.861,190.665 C17.314,205.72 12.413,226.779 22.482,238.464 C36.664,254.911 45.172,262.258 59.15,268.586 C77.88,263.665 91.739,246.649 91.739,226.364 C91.739,202.24 72.157,182.665 48.033,182.665" fill="#EB98AF"/>
    <path d="M43.322,145.68 C43.322,145.68 -19.2,238.464 54.094,269.395 C127.374,300.326 239.663,292.267 294.126,246.522 C294.126,246.522 358.638,229.921 341.855,190.054 C325.711,151.727 292.087,181.329 292.087,181.329" fill-opacity="0" stroke="#563E26" stroke-width="9" stroke-linecap="round" stroke-linejoin="round"/>
    <path d="M88.294,187.369 C88.294,200.869 81.115,211.802 72.228,211.802 C63.368,211.802 56.175,200.869 56.175,187.369 C56.175,173.882 63.368,162.935 72.228,162.935 C81.115,162.935 88.294,173.882 88.294,187.369" fill="#563E26"/>
    <path d="M238.896,187.369 C238.896,200.869 231.71,211.802 222.844,211.802 C213.978,211.802 206.792,200.869 206.792,187.369 C206.792,173.882 213.978,162.935 222.844,162.935 C231.71,162.935 238.896,173.882 238.896,187.369" fill="#563E26"/>
    <g>
      <path d="M151.582,188.711 C151.582,188.711 131.417,194.09 134.771,204.173 C138.131,214.263 152.243,213.595 152.243,213.595 M108.544,229.056 C108.544,229.056 130.06,251.248 151.582,250.572 C173.098,249.897 191.252,228.374 191.252,228.374 M43.456,143.142 C43.456,143.142 67.594,118.223 90.172,112.788 L89.391,81.639 L114.302,100.336 L118.971,73.863 L142.315,92.552 L150.113,71.514 L170.349,97.2 C170.349,97.2 270.769,99.555 298.775,173.496 M26.341,166.499 C26.341,166.499 6.879,124.474 41.135,101.882 L46.992,71.887 L83.569,84.332 L81.249,59.414 L115.505,68.772 L115.505,50.871 L123.647,41.167 C123.647,41.167 252.094,5.365 316.69,58.289 C381.307,111.234 346.271,206.191 346.271,206.191" fill-opacity="0" stroke="#563E26" stroke-width="9" stroke-linecap="round" stroke-linejoin="round"/>
      <path d="M354.378,200.988 C354.378,200.988 251.095,72.498 24.246,117.373 C24.246,117.373 39.272,-11.666 217.282,7.333 C418.924,28.856 354.378,200.988 354.378,200.988" fill="#459FCC"/>
    </g>
    <path d="M366.056,120.452 C366.056,120.452 425.688,106.312 428.149,146.271 C430.603,186.236 354.378,200.988 354.378,200.988" fill="#459FCC"/>
    <path d="M201.3,94.633 L121.995,88.488 C121.995,88.488 132.45,59.814 160.723,60.82 C195.148,62.043 201.3,94.633 201.3,94.633" fill="#565856"/>
    <path d="M354.378,200.988 C354.378,200.988 251.095,72.498 24.246,117.373 C24.246,117.373 39.272,-11.666 217.282,7.333 C418.924,28.856 354.378,200.988 354.378,200.988 z M366.056,120.452 C366.056,120.452 425.688,106.312 428.149,146.271 C430.603,186.236 354.378,200.988 354.378,200.988 M201.3,94.633 L121.995,88.488 C121.995,88.488 132.45,59.814 160.723,60.82 C195.148,62.043 201.3,94.633 201.3,94.633 z" fill-opacity="0" stroke="#563E26" stroke-width="9" stroke-linecap="round" stroke-linejoin="round"/>
  </g>
</svg>