<?xml version="1.0" encoding="UTF-8" standalone="no"?>
<svg xmlns:rdf="http://www.w3.org/1999/02/22-rdf-syntax-ns#" xmlns="http://www.w3.org/2000/svg" height="627pt" width="612pt" version="1.1" xmlns:cc="http://creativecommons.org/ns#" xmlns:dc="http://purl.org/dc/elements/1.1/" viewBox="0 0 612 627">
<g>
<path d="m172.66 8.3984c-9.6266 1.766-11.297 13.869-11.111 22.027-0.35217 2.4239-5.5984 4.0075-8.1973 2.3848-3.1081-1.5624 0.99768-7.5807-3.6856-6.5781-3.7736 2.2387-3.9536 7.9379-5.9941 11.385-2.668 7.3246-5.8601 16.192-0.30664 23.008 6.0602 7.9169 5.0501 18.159 7.7578 27.303 2.3305 9.9209 2.437 20.488-1.0098 30.072-1.3986 3.4711 1.9963 3.5288 4.0742 4.5586 4.0832 4.1511-2.0367 9.225-5.2832 11.482-4.9914 4.4398-10.825 9.5465-15.328 13.592 4.0341 2.36-1.046 5.8254-3.9687 5.6777-10.374 2.2308-21.117 0.90972-31.563 0.80859-13.513-5.18-16.847-20.83-21.842-32.71-7.845-18.95-16.14-40.81-35.622-50.621-10.014-2.869-16.275 8.47-17.297 16.754-1.2299 3.9012 2.4055 10.274-3.1133 12.055-2.7838 0.91555-6.3957 0.17578-6.1406 4.1445-0.73598 3.7754 1.4257 7.1968-0.39318 10.064 8.2442 8.5709-1.3827 22.073 3.3562 32.05 5.3288 25.499 16.148 50.225 33.084 70.192 6.7013 6.5453 13.754 13.005 20.501 19.336 17.707 7.8304 37.625 11.069 56.782 7.814 15.141 1.0129 24.95 14.04 37.998 19.986 6.628 4.563 10.165 12.335 16.5 17.338 11.617 10.576 23.587 20.981 36.457 29.967 13.828 6.4576 22.607 19.525 33.979 29.188 18.488 17.139 36.346 35.143 56.289 50.592 13.871 9.253 29.316 17.518 38.98 31.537 10.891 4.2519 18.396 13.766 26.184 22.059 9.0077 10.655 16.744 23.09 19.537 36.871-4.6105 29.23 9.1076 57.738 23.909 82.382 8.652 14.623 16.171 30.012 25.404 44.245 7.9468 8.2254 20.439 8.8888 30.812 11.443 2.2508-3.2729 4.204-7.9724 9.1484-7.1133 5.46 0.89319 9.3278-3.1664 10.854-7.9941 6.15-14.678-0.53692-30.902-8.8398-43.281-3.8115-8.2212-4.6126-17.529-7.6934-25.928-0.11645-7.9916 3.3228-15.64 4.1035-23.412 4.2805-7.0254 11.888-10.551 18.291-15.123 5.1284-5.2682 10.778-12.139 19.025-11.219 1.9639 4.7762-3.0479 7.2409-5.3359 10.229-1.6433 2.2555 1.5098 8.0179 3.9629 5.2754 2.6149-8.3644 14.912-6.11 18.393 0.29492 7.7399 10.817 9.8766 24.62 17.293 35.498 4.868 5.3798 12.609 9.9062 19.871 7.377 0.43452-3.7811 5.2168-3.8583 6.3711-0.54882 6.469 0.57375 9.8987-7.4326 16.578-7.1055 6.1244-1.6631 10.732-9.8868 6.5-15.385-10.89-24.674-10.537-52.841-22.268-77.15-8.9744-16.27-19.374-32.446-35-43.062-14.524-10.993-33.13-20.367-51.646-15.988-6.1838 0.39428-11.565 4.8508-17.635 4.707-6.226-1.6008-10.028-7.5465-15.644-10.421-8.6378-6.8446-15.903-15.186-25.007-21.498-30.192-24.749-59.837-50.186-89.547-75.459-14.559-13.509-31.211-24.464-45.801-37.958-28.554-25.162-58.844-48.413-86.059-75.054-3.4978-4.4611-9.3568-8.5017-10.092-14.084 2.4807-9.7594 6.5919-19.171 7.181-29.392 3.23-30.496-4.61-60.524-12.52-89.743-4.77-10.527-14.69-17.557-21.68-26.301-1.1-0.5125-2.33-0.6379-3.53-0.5976zm246.22 452.01c8.29-1.903 0.50597 5.2032-3.1348 5.834 0.70726-1.9536 0.32384-5.7556 3.1348-5.834z" fill="#dcdeed"/>
<path d="m175.39 8.1906c-1.15 0.05-3.4412 0.14906-4.5812 0.18906-8.01 4.02-9.8594 14.47-8.9094 22.55-1.01 29.44 11.43 57.73 7.5203 87.23-3.18 10.57-12.34 18.111-21.02 24.241-14.19 9.97-32.38 19.191-49.82 12.041-11.37-4.31-15.18-16.45-19.35-26.65-7.939-17.1-13.009-36.359-27.379-49.549-4.83-4.6-11.47-10.401-18.65-7.541-9.69 5.68-11.459 18.44-9.6594 28.62 0.56 16.35 8.0591 31 12.789 46.35 8.66 19.06 12.61 43.65 32.4 54.58 4.69 4.85 8.7009 11.64 15.561 13.65 25.29 4.33 50.37-4.23 73.2-14.4 11.39-6.14 23.519-11.939 32.239-21.809 12.41-14.69 18.031-33.691 20.761-52.381 2.37-31.02-3.6303-62.12-13.22-91.53-3.85-11.1-15.23-16.449-21.88-25.589zm1.5391 14.469c3.0557 0.15041 5.3741 2.9484 7.4297 5.0203 11.2 14.96 18.2 33.09 18.95 51.85 3.78 18.7 0.8009 37.92-3.5391 56.25-6.12 17.45-14.45 36.3-31.75 45.25-24.73 14.13-52.04 30.201-81.63 23.711-23.61-18.34-39.19-45.41-48.75-73.4-4.23-15.24-7.4506-31.34-4.7406-47.12 1.45-5.22 7.3406-4.75 10.991-2.2 18.24 8.87 21.219 30.43 27.439 47.6 6.44 12.87 8.95 28.83 22.15 37.02 7.44 2.56 15.85 1.4394 23.52 0.60938 19.43-7.09 36.82-18.47 54.78-28.48 6.81-15.76 13.16-34.741 5.7203-51.411-3.44-12.15-7.63-24.469-8-37.169 3.58-9.03-5.5194-21.31 5.1906-27.17 0.7894-0.28875 1.5339-0.39565 2.2391-0.36094zm-27.672 3.3016c-0.2936 0.01393-0.5834 0.05062-0.8672 0.10938-4.48 11.87-13.92 26.45-3.3703 38 6.97 18.34 8.5797 38.46 5.0297 57.75 3.92 0.96 6.1206-3.6397 7.5906-6.5297 3.49-14.51 0.5591-29.68-3.0109-43.9-1.41-8.29-8.3303-15.19-6.6203-24.02-0.23-6.76 3.9306-12.24 5.9906-18.35-0.5162-2.1525-2.687-3.1569-4.7422-3.0594zm-132.3 73.917c-0.4401-0.01954-0.9434 0.0031-1.5172 0.07187-4.78 2.91-1.77 9.5997-2.6 14.03 1.17 35.22 12.31 71 34.28 98.9 5.95 8.41 15.2 13.52 21.47 21.6 11.09 6.06 23.689 8.23 36.089 9.9 9.34 2.4 18.87-3.0891 28.15-0.33907 11.08 3.55 19.22 12.49 29.43 17.68 7.69 4.42 12.241 12.469 18.861 18.159 10.83 11.31 23.509 20.571 35.639 30.411 14.77 6.33 24.911 19.769 36.281 30.659 18.73 16.93 36.389 35.17 56.709 50.3 11.13 8.11 24.28 13.909 32.78 25.209 4.22 6.12 11.901 7.84 16.911 13.1 14.94 13.88 28.729 30.511 33.519 50.781 0.01 6.59-3.0397 13.139-1.0297 19.709 4.92 37.31 29.191 67.539 45.841 100.16 6.17 13.93 22.57 16.581 35.95 18.611 3.2-1.4 1.6403-5.0897 1.7203-7.7297 5.64-1.02 13.929 2.5388 16.739-4.1812 4.97-9.22 4.8897-20.539 1.3797-30.239-5.18-10.51-12.11-20.49-13.88-32.35-0.7-5.59-4.1903-10.27-5.6203-15.57 1.16-19.11 17.79-31.14 30.27-43.47 11.12-8.97 25.43-7.5597 38.6-5.7297 4.6 4.3 7.36 10.52 13.15 13.5 3.43 13.69 5.3506 30.06 17.341 39.52 7.2 7.16 18.88 5.8194 26.85 0.70938 3.98-2.76 4.2191-8.6497 2.1391-12.68-12.27-26.1-10.139-56.94-24.969-82.05-12.93-24.73-34.631-44.931-61.211-53.991-22.31-5.13-46 3.9606-61.93 19.741-9.88 10.42-14.33 24.32-21.1 36.67 1.41 1.75 4.8997 4.8291 5.8797 1.1391 10.41-24.1 35.02-37.76 58.58-46.53 10.48-1.9 24.741-3.8797 32.031 5.8703 4.2 7.05 12.88 7.9694 18.38 13.459 10.94 8.6 16.539 21.631 24.159 32.881 8.45 17.8 16.671 36.429 17.491 56.419 0.6 7.99 4.0497 16.54 1.1297 24.4-4.3 6.29-12.649 0.89031-16.809-2.5797-10.32-13.68-10.621-32.049-19.631-46.439-4.66-7-11.549-12.911-19.959-14.591-12.85-0.94-24.18 5.8506-35.35 11.091-15.46 9.17-28.84 23.409-33.18 41.219-1.5 27.11 17.059 49.291 21.959 75.091 0.63 3.98 1.3006 13.181-5.1594 10.091-16.88-13.87-25.96-34.411-38.22-52.011-8-16.36-16.971-32.399-21.891-50.059-3.11-7.96-2.0388-17.2 2.4812-24.42 2.48-4.74 4.8188-12.18-0.4312-15.88-5.24-0.63-8.8994 5.3-8.6594 10.05-4.62 30.39 10.621 58.3 22.791 85.05 4.71 12.67 13.869 22.81 20.589 34.37 4.31 6.43 12.69 12.579 12.1 20.989-15.16 0.14-26.03-12.809-33.47-24.609-12.3-21.81-20.789-45.491-30.469-68.511-5.04-14.19-8.11-30.1-2.95-44.65-2.81-26.35-24.241-45.52-45.561-58.83-32.67-25.5-66.87-49.24-95.98-78.98-3.5-4.1-9.07-4.8206-13.4-7.6406-31.77-21.28-56.55-50.81-84.95-76.05-9.11-8.78-17.46-19.409-30.12-23.089-12.56-1.62-23.979 8.1191-36.589 5.0891-24.7-9.05-47.52-25.57-60.52-48.8-3.39-8.5-7.03-16.98-9.12-25.91-2.06-15.26-9.69-29.21-11.33-44.54-1.125-4.1625 6.5392-13.888-0.062-14.181zm187.15 64.102-0.5594 0.49062c-2.34 2.71-4.89 6.7594-2.6 10.309 3.86 6.91 7.63 14.27 13.95 19.32 6.65 6.2 16.299 6.9094 23.159 12.859 36.87 21.09 66.581 51.94 99.011 78.97 24.94 24.53 52.91 45.86 82.45 64.53 10.17 15.5 28.07 23.27 41.13 36 1.54 1.97 5.78 2.0609 5.3-1.2391-1.22-4.1-6.6306-4.08-9.3406-6.85-9.09-12.23-21.699-21-33.189-30.78-29.44-25.61-60.081-49.81-89.141-75.87-44.66-34.31-85.47-73.851-130.17-107.74zm0.514 38.934c-0.3916-0.0203-0.8278 0.0456-1.314 0.21563-4.62 6.98-0.09 16.23 5.15 21.45 8.97 7.84 18.651 14.891 28.841 21.091 10.25 6.2 12.4 18.96 19.1 28.13 7.61 3.57 16.3 4.4694 23.1 9.7594 7.97 3.62 14.19 10.511 22.45 13.411-2.9-6.1-8.6597-10.341-11.83-16.341-12.45-3.86-25.69-9.4503-32.4-21.37-7.6-10.13-13.141-24.049-26.691-27.309-10.55-3.24-19.5-11.731-22.5-22.441-0.5863-2.1088-1.1648-6.4533-3.9063-6.5953zm-41.303 13.395c-2.37 4.01-1.3497 9.5506 0.9203 13.391 16.17 15.92 33.49 30.66 51.25 44.8 10.44 10.36 21.49 20.05 33.68 28.32 23.03 19.69 45.48 40.169 70.07 57.939 16.21 15.38 35.449 27.101 52.319 41.681 10.01 11.4 22.43 20.309 32.55 31.589-1.06 1.46 6.4109 4.8103 4.2609 1.5203-7.47-16.87-21.291-29.96-33.341-43.58-11.06-13.39-26.399-22.171-38.309-34.691-11.9-10.25-24.74-19.369-37.5-28.489-21.57-19.01-47.671-31.86-69.661-50.35-13.75-8.22-25.829-18.651-38.059-28.911-6.68-5.95-7.2797-16.07-14.53-21.52-4.09-3.69-9.32-10.52-13.65-11.7zm147.65 86.72c10.99 11.71 25.85 19.321 35.97 32.041 7.79 8.65 14.85 20.98 27.75 21.93 0.15-4.19-4.9509-5.6106-7.0109-8.7406-10.98-14.1-22.69-28.85-39.22-36.7-5.83-2.84-11.249-6.6197-17.489-8.5297zm189.42 128.44c-0.068 0.014-0.1475 0.0431-0.2375 0.0906-7.06 3.17-11.06 10.281-17.55 14.181-4.86 0.77-8.3903-5.2-13.62-3.7-5.68-1.18-9.4291 3.7891-12.589 7.4891-4.63 7.18-7.7103 15.93-6.0203 24.58 1.15 0.82 2.4203 1.4706 3.7203 2.0406 3.06-9.35 3.95-19.799 10.35-27.709 2.83-3.44 5.8294 1.8791 8.8094 2.6891 12.29 5.11 20.42-7.0403 26.25-15.77 0.5812-0.75 1.9103-4.1008 0.8875-3.8906zm30.989 56.316c-2.5458-0.0425-5.146 0.27031-7.6172 0.64531-4.67 0.33-9.4388 2.78-11.469 7.15-1.09 2.3 0.8794 5.5403 3.4094 5.4703 2.54-1.64 3.3203-5.7597 6.7203-5.9797 3.72 0.11 8.51 0.0791 10.9 3.5891 7.42 10.11 11.46 22.14 16.47 33.52 2.32 5.51 7.8991 8.7509 12.989 11.311 3.86 1.08 12 1.6794 11.05-4.1406-11.51-2.76-18.57-13.72-21.9-24.33-1.57-8.07-4.2894-15.97-9.1094-22.7-3.1062-3.4062-7.2008-4.4651-11.444-4.5359z" fill="#197475"/>
</g>
</svg>
